<svg version="1.2" xmlns="http://www.w3.org/2000/svg" viewBox="0 0 626 100" width="626" height="100"><style>.a{fill:#fff}</style><path fill-rule="evenodd" class="a" d="m264.3 50.4q4.9 0.9 7.9 3.6 3.1 2.5 3.1 7.9 0 7.7-5.5 10.9-5.4 3.2-15.1 3.2h-15.2v-48.4h13.3q9.9 0 15.2 2.9 5.2 2.9 5.2 9.5 0 4.2-2.6 6.9-2.5 2.6-6.3 3.5zm-14.5-15.4v12.2h5.1q3.7 0 5.8-1.5 2-1.6 2-4.8 0-3.3-2.2-4.6-2.1-1.3-6.8-1.3zm4.9 33.4q4.9 0 7.4-1.4 2.5-1.5 2.5-5.5 0-7.3-8.9-7.3h-5.9v14.2z"/><path class="a" d="m301.7 26.4q4.6 0 7.9 1.4 3.4 1.2 6.6 3.9l-5.1 5.9q-4.2-3.4-8.8-3.4-5.2 0-8.3 4.3-3 4.2-3 13.2 0 8.8 3 13.1 3.1 4.2 8.3 4.2 2.8 0 5-1 2.3-1 4.7-2.9l4.8 5.9q-2.6 2.7-6.5 4.4-3.8 1.7-8.4 1.7-6.5 0-11.4-2.9-4.9-3-7.6-8.6-2.7-5.8-2.7-13.9 0-7.9 2.8-13.6 2.8-5.7 7.7-8.6 4.9-3.1 11-3.1z"/><path class="a" d="m351.5 27.6l-1.1 7.5h-17.5v12.6h15.2v7.4h-15.2v13.3h18.7v7.6h-29v-48.4z"/><path class="a" d="m413.4 27.6l-12.3 22.1 13.6 26.3h-11.4l-10.9-21.4h-5.4v21.4h-10.3v-48.4h10.3v19.3h5.6l10.6-19.3z"/><path fill-rule="evenodd" class="a" d="m437.7 26.4q6.6 0 11.5 3.1 4.8 2.9 7.4 8.6 2.6 5.6 2.6 13.7 0 7.9-2.6 13.6-2.6 5.7-7.4 8.7-4.9 3-11.5 3-6.7 0-11.6-2.9-4.8-3-7.4-8.7-2.6-5.7-2.6-13.7 0-7.9 2.6-13.5 2.7-5.8 7.5-8.8 4.9-3.1 11.5-3.1zm0 7.7q-5.3 0-8.1 4.2-2.6 4.2-2.6 13.5 0 9.2 2.7 13.4 2.7 4.2 8 4.2 5.3 0 8-4.1 2.6-4.2 2.6-13.5 0-9.3-2.6-13.5-2.7-4.2-8-4.2z"/><path class="a" d="m501.3 27.6v48.4h-10.3v-40.5h-11.3l-1.9 17.5q-1 8.4-2.5 13.1-1.4 4.7-4.2 7.3-2.8 2.5-7.8 3.7l-2.5-7.3q2.6-1.1 3.8-2.8 1.3-1.6 1.9-4.6 0.7-3.1 1.5-9.7l3-25.1z"/><path class="a" d="m540.4 27.6l-1.1 7.5h-17.5v12.6h15.3v7.4h-15.3v13.3h18.8v7.6h-29.1v-48.4zm-22.3-15.9q2.2 0 3.7 1.6 1.6 1.5 1.6 3.6 0 2.2-1.6 3.7-1.5 1.5-3.7 1.5-2.2 0-3.7-1.5-1.5-1.5-1.5-3.7 0-2.1 1.5-3.6 1.5-1.6 3.7-1.6zm15.8 0q2.3 0 3.8 1.6 1.5 1.5 1.5 3.6 0 2.2-1.5 3.7-1.5 1.5-3.8 1.5-2.1 0-3.7-1.5-1.5-1.5-1.5-3.7 0-2.1 1.5-3.6 1.6-1.6 3.7-1.6z"/><path class="a" d="m566.7 26.4q4.6 0 8 1.4 3.3 1.2 6.5 3.9l-5.1 5.9q-4.2-3.4-8.8-3.4-5.2 0-8.3 4.3-3 4.2-3 13.2 0 8.8 3 13.1 3.1 4.2 8.4 4.2 2.7 0 4.9-1 2.3-1 4.7-2.9l4.8 5.9q-2.6 2.7-6.4 4.4-3.8 1.7-8.4 1.7-6.6 0-11.5-2.9-4.9-3-7.6-8.6-2.7-5.8-2.7-13.9 0-7.9 2.8-13.6 2.8-5.7 7.7-8.6 4.9-3.1 11-3.1z"/><path fill-rule="evenodd" class="a" d="m614.2 76l-2.7-10.8h-15.2l-2.7 10.8h-10.7l14.9-48.4h12.5l14.9 48.4zm-16-18.5h11.3l-5.7-22.3z"/><path class="a" d="m114.6 85.4l-0.2-0.3-0.2-0.2q-0.6-0.8-1.3-1.6c-4.9-5.7-11.6-13.6-19.3-30.4-5.3-11.6-9.9-18.3-13.9-23.2-6.5-9.5-17.4-15.7-29.7-15.7-19.9 0-36 16.1-36 36 0 9.6 3.7 18.2 9.8 24.7q0.2 0.2 0.5 0.5 0.1 0.1 0.2 0.3 0.4 0.3 0.7 0.6c6.3 6 14.7 9.7 24 9.9q0.8 0 1.6 0c18.1-0.4 32.9-14.2 35-31.9l8.8 18.6c-4.8 9.4-12.5 17.1-21.9 21.9-9.4 4.7-20.1 6.4-30.5 4.8-10.5-1.7-20.1-6.6-27.6-14-7.4-7.5-12.3-17.1-14-27.6-1.6-10.4 0.1-21.1 4.8-30.5 4.8-9.4 12.5-17.1 21.9-21.9 9.4-4.7 20.1-6.4 30.5-4.8 10.5 1.7 20.1 6.6 27.6 14l0.2 0.3 0.2 0.2q0.6 0.8 1.3 1.6c4.9 5.7 11.6 13.6 19.3 30.4 5.3 11.6 9.9 18.3 13.9 23.2q2 2.9 4.5 5.4 0 0 0.1 0.1 0.3 0.3 0.5 0.5c6.3 5.9 14.8 9.6 24 9.7q0.6 0 1.2 0c9.4-0.1 18-3.9 24.4-10.1q0.7-0.6 1.3-1.3c6-6.4 9.7-15 9.7-24.5q0-0.1 0-0.3c-0.1-19.8-16.2-35.8-36-35.8-18.5 0-33.7 13.9-35.8 31.9l-8.7-18.6c4.7-9.4 12.4-17.1 21.8-21.9 9.4-4.7 20.1-6.4 30.5-4.8 10.5 1.7 20.1 6.6 27.6 14 7.4 7.5 12.3 17.1 14 27.6 1.6 10.4-0.1 21.1-4.8 30.5-4.8 9.4-12.5 17.1-21.9 21.9-9.4 4.7-20.1 6.4-30.5 4.8-10.5-1.7-20.1-6.6-27.6-14z"/><path class="a" d="m20.7 56.4c-2-9 0.3-18.6 6.4-25.8l8.3 12.8c1.3 1.9 0.7 4.5-1.4 5.6z"/><path class="a" d="m27 69.3q-1.4-1.7-2.6-3.6l14.8-3.9c2.2-0.6 4.5 0.8 4.9 3.1l3 15c-7.6-0.8-14.8-4.4-20.1-10.6z"/><path class="a" d="m69.3 73c-3.7 3.1-7.9 5.1-12.2 6.2l0.8-15.3c0.1-2.3 2.1-4 4.4-3.7l15.2 1.8c-1.8 4.1-4.5 7.9-8.2 11z"/><path class="a" d="m73 30.7c5.2 6.3 7.5 14 6.9 21.6l-14.2-5.5c-2.2-0.8-3.2-3.3-2.2-5.4l6.4-13.8q1.6 1.4 3.1 3.1z"/><path class="a" d="m34.8 24.1c8.2-4.8 18.1-5.3 26.6-1.8l-9.6 11.8c-1.4 1.8-4.1 2-5.8 0.4z"/><path fill-rule="evenodd" class="a" d="m42.3 56.4c-3.5-4.2-3-10.5 1.3-14.1 4.2-3.5 10.5-3 14.1 1.3 3.5 4.2 3 10.5-1.3 14.1-4.2 3.5-10.5 3-14.1-1.3zm5.1-9.5c-1.7 1.5-1.9 4-0.5 5.7 1.5 1.7 4 1.9 5.7 0.5 1.7-1.5 1.9-4 0.5-5.7-1.5-1.7-4-1.9-5.7-0.5z"/><path class="a" d="m120.7 56.4c-2-9 0.3-18.6 6.4-25.8l8.3 12.8c1.3 1.9 0.7 4.5-1.4 5.6z"/><path class="a" d="m127 69.3q-1.4-1.7-2.6-3.6l14.8-3.9c2.2-0.6 4.5 0.8 4.9 3.1l3 15c-7.6-0.8-14.8-4.4-20.1-10.6z"/><path class="a" d="m169.3 73c-3.7 3.1-7.9 5.1-12.2 6.2l0.8-15.3c0.1-2.3 2.1-4 4.4-3.7l15.2 1.8c-1.8 4.1-4.5 7.9-8.2 11z"/><path class="a" d="m173 30.7c5.2 6.3 7.5 14 6.9 21.6l-14.2-5.5c-2.2-0.8-3.2-3.3-2.2-5.4l6.4-13.8q1.6 1.4 3.1 3.1z"/><path class="a" d="m134.8 24.1c8.2-4.8 18.1-5.3 26.6-1.8l-9.6 11.8c-1.4 1.8-4.1 2-5.8 0.4z"/><path fill-rule="evenodd" class="a" d="m142.3 56.4c-3.5-4.2-3-10.5 1.3-14.1 4.2-3.5 10.5-3 14.1 1.3 3.5 4.2 3 10.5-1.3 14.1-4.2 3.5-10.5 3-14.1-1.3zm5.1-9.5c-1.7 1.5-1.9 4-0.5 5.7 1.5 1.7 4 1.9 5.7 0.5 1.7-1.5 1.9-4 0.5-5.7-1.5-1.7-4-1.9-5.7-0.5z"/></svg>