<svg width="626" height="100" viewBox="0 0 626 100" fill="none" xmlns="http://www.w3.org/2000/svg">
<path d="M264.315 50.3871C267.582 50.9937 270.218 52.1837 272.225 53.9571C274.278 55.6837 275.305 58.3437 275.305 61.9371C275.305 67.0237 273.485 70.6404 269.845 72.7871C266.205 74.9337 261.142 76.0071 254.655 76.0071H239.535V27.5671H252.765C259.392 27.5671 264.455 28.5471 267.955 30.5071C271.455 32.4671 273.205 35.6171 273.205 39.9571C273.205 42.8037 272.342 45.1137 270.615 46.8871C268.935 48.6137 266.835 49.7804 264.315 50.3871ZM249.825 34.9871V47.2371H254.865C257.385 47.2371 259.322 46.7237 260.675 45.6971C262.028 44.6237 262.705 43.0137 262.705 40.8671C262.705 38.7204 261.982 37.2037 260.535 36.3171C259.088 35.4304 256.825 34.9871 253.745 34.9871H249.825ZM254.725 68.3771C257.945 68.3771 260.395 67.9104 262.075 66.9771C263.755 65.9971 264.595 64.1771 264.595 61.5171C264.595 56.6637 261.608 54.2371 255.635 54.2371H249.825V68.3771H254.725Z" fill="#1C1C1C"/>
<path d="M301.712 26.4471C304.745 26.4471 307.382 26.8904 309.622 27.7771C311.862 28.6171 314.055 29.9237 316.202 31.6971L311.092 37.6471C308.292 35.3604 305.352 34.2171 302.272 34.2171C298.818 34.2171 296.065 35.6404 294.012 38.4871C292.005 41.2871 291.002 45.6971 291.002 51.7171C291.002 57.5971 292.005 61.9604 294.012 64.8071C296.065 67.6071 298.842 69.0071 302.342 69.0071C304.162 69.0071 305.818 68.6804 307.312 68.0271C308.805 67.3271 310.368 66.3471 312.002 65.0871L316.762 71.0371C315.035 72.8104 312.888 74.2804 310.322 75.4471C307.802 76.5671 305.002 77.1271 301.922 77.1271C297.582 77.1271 293.778 76.1471 290.512 74.1871C287.245 72.2271 284.702 69.3571 282.882 65.5771C281.062 61.7504 280.152 57.1304 280.152 51.7171C280.152 46.4437 281.085 41.9171 282.952 38.1371C284.818 34.3104 287.385 31.4171 290.652 29.4571C293.918 27.4504 297.605 26.4471 301.712 26.4471Z" fill="#1C1C1C"/>
<path d="M351.502 27.5671L350.382 35.0571H332.882V47.6571H348.142V55.0771H332.882V68.4471H351.642V76.0071H322.592V27.5671H351.502Z" fill="#1C1C1C"/>
<path d="M413.414 27.5671L401.094 49.6871L414.744 76.0071H403.334L392.414 54.5871H386.954V76.0071H376.664V27.5671H386.954V46.8871H392.624L403.194 27.5671H413.414Z" fill="#1C1C1C"/>
<path d="M437.678 26.4471C442.112 26.4471 445.938 27.4504 449.158 29.4571C452.378 31.4171 454.852 34.2871 456.578 38.0671C458.305 41.8471 459.168 46.4204 459.168 51.7871C459.168 57.0604 458.305 61.6104 456.578 65.4371C454.852 69.2171 452.378 72.1104 449.158 74.1171C445.938 76.1237 442.112 77.1271 437.678 77.1271C433.245 77.1271 429.395 76.1471 426.128 74.1871C422.908 72.1804 420.435 69.2871 418.708 65.5071C416.982 61.6804 416.118 57.1071 416.118 51.7871C416.118 46.5604 416.982 42.0571 418.708 38.2771C420.482 34.4504 422.978 31.5337 426.198 29.5271C429.465 27.4737 433.292 26.4471 437.678 26.4471ZM437.678 34.1471C434.132 34.1471 431.448 35.5471 429.628 38.3471C427.855 41.1471 426.968 45.6271 426.968 51.7871C426.968 57.9471 427.878 62.4271 429.698 65.2271C431.518 68.0271 434.178 69.4271 437.678 69.4271C441.225 69.4271 443.885 68.0504 445.658 65.2971C447.432 62.4971 448.318 57.9937 448.318 51.7871C448.318 45.5804 447.432 41.1004 445.658 38.3471C443.885 35.5471 441.225 34.1471 437.678 34.1471Z" fill="#1C1C1C"/>
<path d="M501.3 27.5671V76.0071H491.01V35.5471H479.67L477.78 52.9771C477.126 58.5771 476.31 62.9637 475.33 66.1371C474.35 69.2637 472.926 71.6904 471.06 73.4171C469.193 75.0971 466.603 76.3337 463.29 77.1271L460.84 69.7771C462.566 69.0771 463.826 68.1671 464.62 67.0471C465.46 65.9271 466.09 64.3637 466.51 62.3571C466.976 60.3504 467.466 57.1304 467.98 52.6971L470.99 27.5671H501.3Z" fill="#1C1C1C"/>
<path d="M540.447 27.5671L539.327 35.0571H521.827V47.6571H537.087V55.0771H521.827V68.4471H540.587V76.0071H511.537V27.5671H540.447ZM518.117 11.7471C519.61 11.7471 520.847 12.2604 521.827 13.2871C522.854 14.2671 523.367 15.4804 523.367 16.9271C523.367 18.3737 522.854 19.6104 521.827 20.6371C520.847 21.6171 519.61 22.1071 518.117 22.1071C516.67 22.1071 515.434 21.6171 514.407 20.6371C513.38 19.6104 512.867 18.3737 512.867 16.9271C512.867 15.4804 513.38 14.2671 514.407 13.2871C515.434 12.2604 516.67 11.7471 518.117 11.7471ZM533.937 11.7471C535.43 11.7471 536.69 12.2604 537.717 13.2871C538.744 14.2671 539.257 15.4804 539.257 16.9271C539.257 18.3737 538.744 19.6104 537.717 20.6371C536.69 21.6171 535.43 22.1071 533.937 22.1071C532.49 22.1071 531.254 21.6171 530.227 20.6371C529.247 19.6104 528.757 18.3737 528.757 16.9271C528.757 15.4804 529.247 14.2671 530.227 13.2871C531.254 12.2604 532.49 11.7471 533.937 11.7471Z" fill="#1C1C1C"/>
<path d="M566.741 26.4471C569.774 26.4471 572.411 26.8904 574.651 27.7771C576.891 28.6171 579.084 29.9237 581.231 31.6971L576.121 37.6471C573.321 35.3604 570.381 34.2171 567.301 34.2171C563.848 34.2171 561.094 35.6404 559.041 38.4871C557.034 41.2871 556.031 45.6971 556.031 51.7171C556.031 57.5971 557.034 61.9604 559.041 64.8071C561.094 67.6071 563.871 69.0071 567.371 69.0071C569.191 69.0071 570.848 68.6804 572.341 68.0271C573.834 67.3271 575.398 66.3471 577.031 65.0871L581.791 71.0371C580.064 72.8104 577.918 74.2804 575.351 75.4471C572.831 76.5671 570.031 77.1271 566.951 77.1271C562.611 77.1271 558.808 76.1471 555.541 74.1871C552.274 72.2271 549.731 69.3571 547.911 65.5771C546.091 61.7504 545.181 57.1304 545.181 51.7171C545.181 46.4437 546.114 41.9171 547.981 38.1371C549.848 34.3104 552.414 31.4171 555.681 29.4571C558.948 27.4504 562.634 26.4471 566.741 26.4471Z" fill="#1C1C1C"/>
<path d="M614.241 76.0071L611.511 65.1571H596.321L593.591 76.0071H582.881L597.791 27.5671H610.321L625.161 76.0071H614.241ZM598.281 57.5271H609.551L603.881 35.1971L598.281 57.5271Z" fill="#1C1C1C"/>
<path d="M142.178 99.3845C152.607 101.036 163.291 99.344 172.699 94.5504C182.108 89.7567 189.757 82.1077 194.55 72.6996C199.344 63.2915 201.036 52.6073 199.384 42.1783C197.733 31.7494 192.822 22.111 185.355 14.6447C177.889 7.1784 168.251 2.26742 157.822 0.615637C147.393 -1.03615 136.709 0.656057 127.3 5.44973C117.892 10.2434 110.243 17.8924 105.45 27.3005L114.235 45.8629C116.287 27.9292 131.517 14 150 14C169.831 14 185.918 30.0354 186 49.8476C186 49.9439 186 50.0403 186 50.1366C185.965 59.5801 182.293 68.1665 176.313 74.5686C175.872 75.0408 175.419 75.501 174.953 75.9488C168.607 82.053 160.027 85.8512 150.561 85.9957C150.184 86.0016 149.807 86.0015 149.429 85.9956C140.165 85.8516 131.749 82.2078 125.447 76.3281C125.255 76.1486 125.064 75.9669 124.875 75.7829C124.833 75.742 124.792 75.701 124.75 75.6599C123.092 74.0288 121.592 72.2379 120.274 70.3129C116.32 65.3886 111.683 58.7189 106.366 47.0898C98.6943 30.3073 91.9858 22.4161 87.1315 16.706C86.6597 16.1511 86.2055 15.6168 85.7696 15.097L85.5724 14.8618L85.3554 14.6448C77.8891 7.17849 68.2507 2.26751 57.8218 0.615723C47.3928 -1.03606 36.7086 0.656146 27.3005 5.44981C17.8924 10.2435 10.2434 17.8925 5.44973 27.3006C0.656057 36.7087 -1.03615 47.3929 0.615637 57.8219C2.26742 68.2508 7.1784 77.8892 14.6447 85.3555C22.111 92.8218 31.7494 97.7328 42.1783 99.3846C52.6073 101.036 63.2915 99.3441 72.6996 94.5505C82.1077 89.7568 89.7567 82.1078 94.5504 72.6997L85.7649 54.1372C83.7426 71.8114 68.9211 85.5961 50.8002 85.9913C50.264 86.0032 49.7271 86.0032 49.19 85.9911C39.9067 85.7861 31.4899 82.0671 25.2171 76.1115C24.9902 75.8962 24.7659 75.6776 24.5442 75.456C24.4608 75.3726 24.3779 75.2889 24.2955 75.2048C24.1286 75.0346 23.9636 74.863 23.8004 74.6898C17.7242 68.2444 14 59.5571 14 50C14 30.1177 30.1177 14 50 14C62.3467 14 73.2417 20.2155 79.7268 29.6882C83.6808 34.6125 88.3178 41.282 93.6337 52.9104C101.306 69.6929 108.014 77.5841 112.869 83.2941C113.34 83.8491 113.795 84.3834 114.23 84.9032L114.428 85.1384L114.645 85.3554C122.111 92.8217 131.749 97.7327 142.178 99.3845Z" fill="#646CFE"/>
<path d="M20.6926 56.4423C18.7231 47.4477 20.9637 37.8036 27.1482 30.5539L35.4452 43.3591C36.7044 45.3025 36.0553 47.9059 34.0311 49.0306L20.6926 56.4423Z" fill="#646CFE"/>
<path d="M27.0175 69.2831C26.0608 68.143 25.2034 66.9525 24.4444 65.7223L39.1857 61.7887C41.4231 61.1917 43.6985 62.6135 44.1427 64.8862L47.0686 79.8561C39.5327 79.117 32.2693 75.5419 27.0175 69.2831Z" fill="#646CFE"/>
<path d="M69.2825 72.9808C65.6109 76.0616 61.418 78.1127 57.0548 79.1647L57.8692 63.9264C57.9928 61.6139 60.0482 59.8893 62.3469 60.1691L77.4955 62.0133C75.7018 66.1273 72.9538 69.9002 69.2825 72.9808Z" fill="#646CFE"/>
<path d="M72.9802 30.7159C78.2321 36.9748 80.4915 44.7489 79.9106 52.299L65.6758 46.8178C63.5147 45.9857 62.5096 43.498 63.4861 41.3983L69.9201 27.5633C70.9999 28.5245 72.0234 29.5756 72.9802 30.7159Z" fill="#646CFE"/>
<path d="M34.816 24.1197C43.0296 19.2877 52.9165 18.7557 61.4327 22.2572L51.8169 34.1065C50.3578 35.9047 47.6812 36.0919 45.986 34.5143L34.816 24.1197Z" fill="#646CFE"/>
<path fill-rule="evenodd" clip-rule="evenodd" d="M56.427 57.66C60.6578 54.11 61.2096 47.8024 57.6596 43.5717C54.1096 39.3409 47.802 38.7891 43.5713 42.3391C39.3405 45.8891 38.7887 52.1967 42.3387 56.4274C45.8887 60.6582 52.1963 61.21 56.427 57.66ZM53.0633 47.4284C54.4833 49.1207 54.2626 51.6437 52.5703 53.0637C50.878 54.4837 48.355 54.263 46.935 52.5707C45.515 50.8784 45.7357 48.3554 47.428 46.9354C49.1203 45.5154 51.6433 45.7361 53.0633 47.4284Z" fill="#646CFE"/>
<path d="M120.693 56.4423C118.723 47.4477 120.964 37.8036 127.148 30.5539L135.445 43.3591C136.704 45.3025 136.055 47.9059 134.031 49.0306L120.693 56.4423Z" fill="#646CFE"/>
<path d="M127.017 69.2831C126.061 68.143 125.203 66.9525 124.444 65.7223L139.186 61.7887C141.423 61.1917 143.699 62.6135 144.143 64.8862L147.069 79.8561C139.533 79.117 132.269 75.5419 127.017 69.2831Z" fill="#646CFE"/>
<path d="M169.282 72.9808C165.611 76.0616 161.418 78.1127 157.055 79.1647L157.869 63.9264C157.993 61.6139 160.048 59.8893 162.347 60.1691L177.495 62.0133C175.702 66.1273 172.954 69.9002 169.282 72.9808Z" fill="#646CFE"/>
<path d="M172.98 30.7159C178.232 36.9748 180.491 44.7489 179.911 52.299L165.676 46.8178C163.515 45.9857 162.51 43.498 163.486 41.3983L169.92 27.5633C171 28.5245 172.023 29.5756 172.98 30.7159Z" fill="#646CFE"/>
<path d="M134.816 24.1197C143.03 19.2877 152.916 18.7557 161.433 22.2572L151.817 34.1065C150.358 35.9047 147.681 36.0919 145.986 34.5143L134.816 24.1197Z" fill="#646CFE"/>
<path fill-rule="evenodd" clip-rule="evenodd" d="M156.427 57.66C160.658 54.11 161.21 47.8024 157.66 43.5717C154.11 39.3409 147.802 38.7891 143.571 42.3391C139.341 45.8891 138.789 52.1967 142.339 56.4274C145.889 60.6582 152.196 61.21 156.427 57.66ZM153.063 47.4284C154.483 49.1207 154.263 51.6437 152.57 53.0637C150.878 54.4837 148.355 54.263 146.935 52.5707C145.515 50.8784 145.736 48.3554 147.428 46.9354C149.12 45.5154 151.643 45.7361 153.063 47.4284Z" fill="#646CFE"/>
</svg>
